<?xml version="1.0" standalone="no"?>
<!DOCTYPE svg PUBLIC "-//W3C//DTD SVG 20010904//EN"
 "http://www.w3.org/TR/2001/REC-SVG-20010904/DTD/svg10.dtd">
<svg version="1.0" xmlns="http://www.w3.org/2000/svg"
 width="437.000000pt" height="377.000000pt" viewBox="0 0 437.000000 377.000000"
 preserveAspectRatio="xMidYMid meet">

<g transform="translate(0.000000,377.000000) scale(0.100000,-0.100000)"
fill="#000000" stroke="none">
<path d="M670 3615 c-152 -42 -242 -117 -310 -259 -174 -366 -121 -650 228
-1219 38 -60 42 -74 42 -130 0 -34 -9 -109 -20 -167 -11 -58 -30 -168 -41
-245 -15 -101 -29 -157 -50 -200 -33 -71 -123 -180 -207 -250 -67 -56 -74 -68
-132 -215 -23 -58 -48 -118 -55 -135 -39 -91 -66 -187 -91 -324 -12 -71 -12
-76 9 -105 24 -35 77 -86 89 -86 4 0 18 5 32 11 36 17 56 67 56 141 0 72 23
150 75 261 59 127 114 161 370 227 66 17 142 38 169 46 85 24 89 8 51 -226
-18 -116 -9 -157 60 -269 52 -85 95 -138 214 -268 l85 -93 107 0 c59 0 119 4
133 10 34 12 43 52 21 86 -18 28 -87 63 -124 64 -25 0 -130 98 -184 171 -58
78 -26 153 162 381 30 36 73 101 96 144 l41 79 79 7 c44 4 148 11 230 17 86 6
171 17 200 27 50 16 50 16 185 -21 74 -20 144 -42 154 -47 17 -9 18 -19 13
-102 -8 -135 -35 -281 -78 -421 -7 -22 -13 -94 -13 -160 -1 -100 2 -126 17
-148 18 -28 18 -28 125 -25 105 3 107 4 119 30 18 37 3 71 -48 105 -39 26 -41
29 -36 68 6 44 177 393 238 484 67 101 83 111 190 121 52 6 115 15 141 21 33
8 52 8 67 0 43 -23 142 -114 166 -151 35 -55 75 -92 290 -266 61 -48 153 -124
205 -167 52 -43 138 -106 190 -141 52 -35 106 -73 119 -85 21 -19 36 -21 130
-21 111 0 139 9 161 50 27 51 -43 110 -132 110 l-54 0 -105 108 c-134 135
-200 215 -270 322 -127 194 -139 245 -139 604 l0 233 28 51 c40 76 98 140 164
182 52 34 69 39 164 51 100 11 107 14 128 43 40 54 76 126 76 153 0 16 -24 58
-64 112 -35 47 -71 100 -80 118 -19 39 -78 88 -155 128 l-56 30 3 91 4 92 -31
15 -30 15 -113 -105 c-78 -73 -135 -116 -183 -140 -86 -44 -139 -80 -230 -156
-38 -32 -99 -75 -135 -95 -63 -36 -67 -37 -165 -36 -55 1 -145 9 -200 17 -55
9 -154 23 -220 32 -66 8 -147 20 -180 25 -137 22 -387 61 -485 76 -140 22
-573 22 -745 0 -191 -25 -206 -23 -284 28 -172 115 -239 236 -306 558 -20 96
-19 157 5 249 46 183 94 239 229 268 69 15 114 3 179 -49 56 -45 71 -48 96
-21 48 53 36 138 -28 202 -79 80 -107 93 -210 96 -58 2 -111 -3 -146 -12z"/>
</g>
</svg>
